<svg xmlns="http://www.w3.org/2000/svg" width="960" height="300" viewBox="0 0 960 300" role="img" aria-label="健康观察者：第二双眼睛">
<style>
text{font-family:-apple-system,BlinkMacSystemFont,'Segoe UI','PingFang SC','Hiragino Sans GB','Microsoft YaHei','Noto Sans CJK SC',Helvetica,Arial,sans-serif;fill:#1f2328;font-size:13px}
.h{font-size:15px;font-weight:600}.hb{font-size:17px;font-weight:700}
.s{font-size:13px;fill:#57606a}.xs{font-size:12px;fill:#6f7781}
.mono{font-family:ui-monospace,SFMono-Regular,Menlo,Consolas,'PingFang SC','Microsoft YaHei',monospace;font-size:12px;fill:#57606a}
.w{fill:#ffffff;font-weight:600}
.bg{fill:#ffffff}
.line{stroke:#8c959f;stroke-width:1.6;fill:none;stroke-linecap:round;stroke-linejoin:round}
.line.soft{stroke:#c9d1d9}
.ar{stroke:#8c959f;stroke-width:1.6;fill:none;marker-end:url(#ah);stroke-linecap:round;stroke-linejoin:round}
.ar.blue{stroke:#2f5fdb;marker-end:url(#ah-blue)}.ar.green{stroke:#1a7f37;marker-end:url(#ah-green)}
.ar.red{stroke:#cf222e;marker-end:url(#ah-red)}.ar.amber{stroke:#9a6700;marker-end:url(#ah-amber)}
.ar.dash{stroke-dasharray:5 4}
.ic{fill:none;stroke-width:1.9;stroke-linecap:round;stroke-linejoin:round}
.c-gray{fill:#f6f8fa;stroke:#d8dee4;stroke-width:1}.f-gray{fill:#57606a}.k-gray{stroke:#57606a}.t-gray{fill:#57606a}.ic-gray{stroke:#57606a}.sf-gray{fill:#f6f8fa}.ss-gray{stroke:#d8dee4}
.c-blue{fill:#eef4ff;stroke:#c7d7fe;stroke-width:1}.f-blue{fill:#2f5fdb}.k-blue{stroke:#2f5fdb}.t-blue{fill:#2f5fdb}.ic-blue{stroke:#2f5fdb}.sf-blue{fill:#eef4ff}.ss-blue{stroke:#c7d7fe}
.c-green{fill:#ecfdf3;stroke:#b7e4c7;stroke-width:1}.f-green{fill:#1a7f37}.k-green{stroke:#1a7f37}.t-green{fill:#1a7f37}.ic-green{stroke:#1a7f37}.sf-green{fill:#ecfdf3}.ss-green{stroke:#b7e4c7}
.c-amber{fill:#fff8e6;stroke:#f5d78a;stroke-width:1}.f-amber{fill:#9a6700}.k-amber{stroke:#9a6700}.t-amber{fill:#9a6700}.ic-amber{stroke:#9a6700}.sf-amber{fill:#fff8e6}.ss-amber{stroke:#f5d78a}
.c-red{fill:#fff1f0;stroke:#f7b9b4;stroke-width:1}.f-red{fill:#cf222e}.k-red{stroke:#cf222e}.t-red{fill:#cf222e}.ic-red{stroke:#cf222e}.sf-red{fill:#fff1f0}.ss-red{stroke:#f7b9b4}
.c-purple{fill:#f6f1ff;stroke:#d6c7f5;stroke-width:1}.f-purple{fill:#6e40c9}.k-purple{stroke:#6e40c9}.t-purple{fill:#6e40c9}.ic-purple{stroke:#6e40c9}.sf-purple{fill:#f6f1ff}.ss-purple{stroke:#d6c7f5}
@media (prefers-color-scheme: dark){
text{fill:#e6edf3}.s{fill:#a3adb8}.xs{fill:#8b949e}.mono{fill:#a3adb8}.w{fill:#ffffff}
.bg{fill:#0d1117}
.line{stroke:#6e7681}.line.soft{stroke:#30363d}
.ar{stroke:#6e7681}
.ar.blue{stroke:#79a6ff}.ar.green{stroke:#4ad07a}.ar.red{stroke:#ff7b72}.ar.amber{stroke:#e3b341}
.c-gray{fill:#161b22;stroke:#30363d}.f-gray{fill:#8b949e}.k-gray{stroke:#8b949e}.t-gray{fill:#8b949e}.ic-gray{stroke:#8b949e}.sf-gray{fill:#161b22}.ss-gray{stroke:#30363d}
.c-blue{fill:#12203a;stroke:#2b4a86}.f-blue{fill:#79a6ff}.k-blue{stroke:#79a6ff}.t-blue{fill:#79a6ff}.ic-blue{stroke:#79a6ff}.sf-blue{fill:#12203a}.ss-blue{stroke:#2b4a86}
.c-green{fill:#0f2a1a;stroke:#1f5a33}.f-green{fill:#4ad07a}.k-green{stroke:#4ad07a}.t-green{fill:#4ad07a}.ic-green{stroke:#4ad07a}.sf-green{fill:#0f2a1a}.ss-green{stroke:#1f5a33}
.c-amber{fill:#2e2410;stroke:#6b4f12}.f-amber{fill:#e3b341}.k-amber{stroke:#e3b341}.t-amber{fill:#e3b341}.ic-amber{stroke:#e3b341}.sf-amber{fill:#2e2410}.ss-amber{stroke:#6b4f12}
.c-red{fill:#301416;stroke:#7a2a2e}.f-red{fill:#ff7b72}.k-red{stroke:#ff7b72}.t-red{fill:#ff7b72}.ic-red{stroke:#ff7b72}.sf-red{fill:#301416}.ss-red{stroke:#7a2a2e}
.c-purple{fill:#231a36;stroke:#4a3480}.f-purple{fill:#b083f0}.k-purple{stroke:#b083f0}.t-purple{fill:#b083f0}.ic-purple{stroke:#b083f0}.sf-purple{fill:#231a36}.ss-purple{stroke:#4a3480}
}
</style>
<defs><marker id="ah" viewBox="0 0 10 10" refX="8.5" refY="5" markerWidth="7" markerHeight="7" orient="auto-start-reverse"><path d="M1,1 L9,5 L1,9" fill="none" stroke="#8c959f" stroke-width="1.8" stroke-linecap="round" stroke-linejoin="round"/></marker><marker id="ah-blue" viewBox="0 0 10 10" refX="8.5" refY="5" markerWidth="7" markerHeight="7" orient="auto-start-reverse"><path d="M1,1 L9,5 L1,9" fill="none" stroke="#2f5fdb" stroke-width="1.8" stroke-linecap="round" stroke-linejoin="round"/></marker><marker id="ah-green" viewBox="0 0 10 10" refX="8.5" refY="5" markerWidth="7" markerHeight="7" orient="auto-start-reverse"><path d="M1,1 L9,5 L1,9" fill="none" stroke="#1a7f37" stroke-width="1.8" stroke-linecap="round" stroke-linejoin="round"/></marker><marker id="ah-red" viewBox="0 0 10 10" refX="8.5" refY="5" markerWidth="7" markerHeight="7" orient="auto-start-reverse"><path d="M1,1 L9,5 L1,9" fill="none" stroke="#cf222e" stroke-width="1.8" stroke-linecap="round" stroke-linejoin="round"/></marker><marker id="ah-amber" viewBox="0 0 10 10" refX="8.5" refY="5" markerWidth="7" markerHeight="7" orient="auto-start-reverse"><path d="M1,1 L9,5 L1,9" fill="none" stroke="#9a6700" stroke-width="1.8" stroke-linecap="round" stroke-linejoin="round"/></marker></defs>
<rect width="960" height="300" class="bg"/>
<rect x="24.0" y="24.0" width="330.0" height="150.0" rx="12" class="c-gray"/>
<g transform="translate(40.0,38.0) scale(0.917)" class="ic ic-blue"><circle cx="12" cy="13" r="8"/><path d="M12 9v4l2 2"/><path d="M5 3 2 6"/><path d="m22 6-3-3"/></g>
<text x="72" y="54" class="h">主计划：每分钟一次</text>
<text x="72" y="76" class="s">该跑就跑，不该跑就退出；每次都在本机记一</text>
<text x="72" y="95" class="s">次心跳</text>
<text x="72" y="114" class="s">盲点：定时任务坏了、电脑没开时，它根本不</text>
<text x="72" y="133" class="s">会被叫醒，也就不会报错</text>
<rect x="400.0" y="64.0" width="160.0" height="70.0" rx="12" class="c-gray"/>
<g transform="translate(468.0,76.0) scale(1.000)" class="ic ic-blue"><ellipse cx="12" cy="5" rx="9" ry="3"/><path d="M3 5v14a9 3 0 0 0 18 0V5"/><path d="M3 12a9 3 0 0 0 18 0"/></g>
<text x="480" y="122" class="h" text-anchor="middle">本机记录</text>
<path d="M356.0,99.0 L398.0,99.0" class="ar"/>
<text x="377" y="91" class="xs" text-anchor="middle">写</text>
<path d="M604.0,99.0 L562.0,99.0" class="ar"/>
<text x="583" y="91" class="xs" text-anchor="middle">读</text>
<rect x="606.0" y="24.0" width="330.0" height="150.0" rx="12" class="c-blue"/>
<g transform="translate(622.0,38.0) scale(0.917)" class="ic ic-blue"><path d="M2.06 12.35a1 1 0 0 1 0-.7 10.75 10.75 0 0 1 19.88 0 1 1 0 0 1 0 .7 10.75 10.75 0 0 1-19.88 0"/><circle cx="12" cy="12" r="3"/></g>
<text x="654" y="54" class="h">健康观察者：每天一次</text>
<text x="654" y="76" class="s">只读本机记录，不开浏览器、不碰账号</text>
<text x="654" y="95" class="s">看两件事：该完成的日子都完成了吗？最近一</text>
<text x="654" y="114" class="s">次心跳是多久前？</text>
<rect x="24.0" y="198.0" width="292.0" height="62.0" rx="12" class="c-green"/>
<g transform="translate(40.0,212.0) scale(0.917)" class="ic ic-green"><circle cx="12" cy="12" r="10"/><path d="m9 12 2 2 4-4"/></g>
<text x="72" y="228" class="h">正常</text>
<text x="72" y="250" class="s">都完成了，8 小时内有心跳</text>
<rect x="334.0" y="198.0" width="292.0" height="62.0" rx="12" class="c-amber"/>
<g transform="translate(350.0,212.0) scale(0.917)" class="ic ic-amber"><path d="m21.73 18-8-14a2 2 0 0 0-3.48 0l-8 14A2 2 0 0 0 4 21h16a2 2 0 0 0 1.73-3"/><path d="M12 9v4"/><path d="M12 17h.01"/></g>
<text x="382" y="228" class="h">留意</text>
<text x="382" y="250" class="s">有一天没完成，但还不到 2 天</text>
<rect x="644.0" y="198.0" width="292.0" height="62.0" rx="12" class="c-red"/>
<g transform="translate(660.0,212.0) scale(0.917)" class="ic ic-red"><path d="M10.3 21a2 2 0 0 0 3.4 0"/><path d="M3.3 15.3A1 1 0 0 0 4 17h16a1 1 0 0 0 .7-1.7C19.4 14 18 12.5 18 8A6 6 0 0 0 6 8c0 4.5-1.4 6-2.7 7.3"/></g>
<text x="692" y="228" class="h">提醒你</text>
<text x="692" y="250" class="s">连续 2 天没完成，或 8 小时没心跳</text>
<text x="24" y="288" class="xs">「提醒你」时命令会返回一个特殊的退出码，你可以接桌面通知或消息推送。</text>
</svg>
