<svg xmlns="http://www.w3.org/2000/svg" width="960" height="430" viewBox="0 0 960 430" role="img" aria-label="安装七步">
<style>
text{font-family:-apple-system,BlinkMacSystemFont,'Segoe UI','PingFang SC','Hiragino Sans GB','Microsoft YaHei','Noto Sans CJK SC',Helvetica,Arial,sans-serif;fill:#1f2328;font-size:13px}
.h{font-size:15px;font-weight:600}.hb{font-size:17px;font-weight:700}
.s{font-size:13px;fill:#57606a}.xs{font-size:12px;fill:#6f7781}
.mono{font-family:ui-monospace,SFMono-Regular,Menlo,Consolas,'PingFang SC','Microsoft YaHei',monospace;font-size:12px;fill:#57606a}
.w{fill:#ffffff;font-weight:600}
.bg{fill:#ffffff}
.line{stroke:#8c959f;stroke-width:1.6;fill:none;stroke-linecap:round;stroke-linejoin:round}
.line.soft{stroke:#c9d1d9}
.ar{stroke:#8c959f;stroke-width:1.6;fill:none;marker-end:url(#ah);stroke-linecap:round;stroke-linejoin:round}
.ar.blue{stroke:#2f5fdb;marker-end:url(#ah-blue)}.ar.green{stroke:#1a7f37;marker-end:url(#ah-green)}
.ar.red{stroke:#cf222e;marker-end:url(#ah-red)}.ar.amber{stroke:#9a6700;marker-end:url(#ah-amber)}
.ar.dash{stroke-dasharray:5 4}
.ic{fill:none;stroke-width:1.9;stroke-linecap:round;stroke-linejoin:round}
.c-gray{fill:#f6f8fa;stroke:#d8dee4;stroke-width:1}.f-gray{fill:#57606a}.k-gray{stroke:#57606a}.t-gray{fill:#57606a}.ic-gray{stroke:#57606a}.sf-gray{fill:#f6f8fa}.ss-gray{stroke:#d8dee4}
.c-blue{fill:#eef4ff;stroke:#c7d7fe;stroke-width:1}.f-blue{fill:#2f5fdb}.k-blue{stroke:#2f5fdb}.t-blue{fill:#2f5fdb}.ic-blue{stroke:#2f5fdb}.sf-blue{fill:#eef4ff}.ss-blue{stroke:#c7d7fe}
.c-green{fill:#ecfdf3;stroke:#b7e4c7;stroke-width:1}.f-green{fill:#1a7f37}.k-green{stroke:#1a7f37}.t-green{fill:#1a7f37}.ic-green{stroke:#1a7f37}.sf-green{fill:#ecfdf3}.ss-green{stroke:#b7e4c7}
.c-amber{fill:#fff8e6;stroke:#f5d78a;stroke-width:1}.f-amber{fill:#9a6700}.k-amber{stroke:#9a6700}.t-amber{fill:#9a6700}.ic-amber{stroke:#9a6700}.sf-amber{fill:#fff8e6}.ss-amber{stroke:#f5d78a}
.c-red{fill:#fff1f0;stroke:#f7b9b4;stroke-width:1}.f-red{fill:#cf222e}.k-red{stroke:#cf222e}.t-red{fill:#cf222e}.ic-red{stroke:#cf222e}.sf-red{fill:#fff1f0}.ss-red{stroke:#f7b9b4}
.c-purple{fill:#f6f1ff;stroke:#d6c7f5;stroke-width:1}.f-purple{fill:#6e40c9}.k-purple{stroke:#6e40c9}.t-purple{fill:#6e40c9}.ic-purple{stroke:#6e40c9}.sf-purple{fill:#f6f1ff}.ss-purple{stroke:#d6c7f5}
@media (prefers-color-scheme: dark){
text{fill:#e6edf3}.s{fill:#a3adb8}.xs{fill:#8b949e}.mono{fill:#a3adb8}.w{fill:#ffffff}
.bg{fill:#0d1117}
.line{stroke:#6e7681}.line.soft{stroke:#30363d}
.ar{stroke:#6e7681}
.ar.blue{stroke:#79a6ff}.ar.green{stroke:#4ad07a}.ar.red{stroke:#ff7b72}.ar.amber{stroke:#e3b341}
.c-gray{fill:#161b22;stroke:#30363d}.f-gray{fill:#8b949e}.k-gray{stroke:#8b949e}.t-gray{fill:#8b949e}.ic-gray{stroke:#8b949e}.sf-gray{fill:#161b22}.ss-gray{stroke:#30363d}
.c-blue{fill:#12203a;stroke:#2b4a86}.f-blue{fill:#79a6ff}.k-blue{stroke:#79a6ff}.t-blue{fill:#79a6ff}.ic-blue{stroke:#79a6ff}.sf-blue{fill:#12203a}.ss-blue{stroke:#2b4a86}
.c-green{fill:#0f2a1a;stroke:#1f5a33}.f-green{fill:#4ad07a}.k-green{stroke:#4ad07a}.t-green{fill:#4ad07a}.ic-green{stroke:#4ad07a}.sf-green{fill:#0f2a1a}.ss-green{stroke:#1f5a33}
.c-amber{fill:#2e2410;stroke:#6b4f12}.f-amber{fill:#e3b341}.k-amber{stroke:#e3b341}.t-amber{fill:#e3b341}.ic-amber{stroke:#e3b341}.sf-amber{fill:#2e2410}.ss-amber{stroke:#6b4f12}
.c-red{fill:#301416;stroke:#7a2a2e}.f-red{fill:#ff7b72}.k-red{stroke:#ff7b72}.t-red{fill:#ff7b72}.ic-red{stroke:#ff7b72}.sf-red{fill:#301416}.ss-red{stroke:#7a2a2e}
.c-purple{fill:#231a36;stroke:#4a3480}.f-purple{fill:#b083f0}.k-purple{stroke:#b083f0}.t-purple{fill:#b083f0}.ic-purple{stroke:#b083f0}.sf-purple{fill:#231a36}.ss-purple{stroke:#4a3480}
}
</style>
<defs><marker id="ah" viewBox="0 0 10 10" refX="8.5" refY="5" markerWidth="7" markerHeight="7" orient="auto-start-reverse"><path d="M1,1 L9,5 L1,9" fill="none" stroke="#8c959f" stroke-width="1.8" stroke-linecap="round" stroke-linejoin="round"/></marker><marker id="ah-blue" viewBox="0 0 10 10" refX="8.5" refY="5" markerWidth="7" markerHeight="7" orient="auto-start-reverse"><path d="M1,1 L9,5 L1,9" fill="none" stroke="#2f5fdb" stroke-width="1.8" stroke-linecap="round" stroke-linejoin="round"/></marker><marker id="ah-green" viewBox="0 0 10 10" refX="8.5" refY="5" markerWidth="7" markerHeight="7" orient="auto-start-reverse"><path d="M1,1 L9,5 L1,9" fill="none" stroke="#1a7f37" stroke-width="1.8" stroke-linecap="round" stroke-linejoin="round"/></marker><marker id="ah-red" viewBox="0 0 10 10" refX="8.5" refY="5" markerWidth="7" markerHeight="7" orient="auto-start-reverse"><path d="M1,1 L9,5 L1,9" fill="none" stroke="#cf222e" stroke-width="1.8" stroke-linecap="round" stroke-linejoin="round"/></marker><marker id="ah-amber" viewBox="0 0 10 10" refX="8.5" refY="5" markerWidth="7" markerHeight="7" orient="auto-start-reverse"><path d="M1,1 L9,5 L1,9" fill="none" stroke="#9a6700" stroke-width="1.8" stroke-linecap="round" stroke-linejoin="round"/></marker></defs>
<rect width="960" height="430" class="bg"/>
<rect x="24.0" y="24.0" width="213.0" height="140.0" rx="12" class="c-gray"/>
<circle cx="53.0" cy="53.0" r="13" class="f-blue"/>
<text x="53" y="58" class="w" text-anchor="middle" style="font-size:13px">1</text>
<g transform="translate(195.0,42.0) scale(1.000)" class="ic ic-blue"><path d="M12 15V3"/><path d="M21 15v4a2 2 0 0 1-2 2H5a2 2 0 0 1-2-2v-4"/><path d="m7 10 5 5 5-5"/></g>
<text x="40" y="94" class="h">克隆仓库</text>
<text x="40" y="118" class="s">拿到源码；不会创建任何计划</text>
<path d="M239.0,94.0 L253.0,94.0" class="ar"/>
<rect x="255.0" y="24.0" width="213.0" height="140.0" rx="12" class="c-gray"/>
<circle cx="284.0" cy="53.0" r="13" class="f-blue"/>
<text x="284" y="58" class="w" text-anchor="middle" style="font-size:13px">2</text>
<g transform="translate(426.0,42.0) scale(1.000)" class="ic ic-blue"><rect x="4" y="4" width="16" height="16" rx="2"/><rect x="9" y="9" width="6" height="6"/><path d="M15 2v2"/><path d="M15 20v2"/><path d="M2 15h2"/><path d="M2 9h2"/><path d="M20 15h2"/><path d="M20 9h2"/><path d="M9 2v2"/><path d="M9 20v2"/></g>
<text x="271" y="94" class="h">建环境、装依赖</text>
<text x="271" y="118" class="s">独立的 Python 环境，不污染</text>
<text x="271" y="137" class="s">系统</text>
<path d="M470.0,94.0 L484.0,94.0" class="ar"/>
<rect x="486.0" y="24.0" width="213.0" height="140.0" rx="12" class="c-gray"/>
<circle cx="515.0" cy="53.0" r="13" class="f-blue"/>
<text x="515" y="58" class="w" text-anchor="middle" style="font-size:13px">3</text>
<g transform="translate(657.0,42.0) scale(1.000)" class="ic ic-blue"><path d="M11 6h10"/><path d="M11 12h10"/><path d="M11 18h10"/><path d="m3 6 1.5 1.5L7 5"/><path d="m3 12 1.5 1.5L7 11"/><path d="m3 18 1.5 1.5L7 17"/></g>
<text x="502" y="94" class="h">跑一次安装检查</text>
<text x="502" y="118" class="s">不登录、不签到；看到「完成」</text>
<text x="502" y="137" class="s">再继续</text>
<path d="M701.0,94.0 L715.0,94.0" class="ar"/>
<rect x="717.0" y="24.0" width="213.0" height="140.0" rx="12" class="c-gray"/>
<circle cx="746.0" cy="53.0" r="13" class="f-blue"/>
<text x="746" y="58" class="w" text-anchor="middle" style="font-size:13px">4</text>
<g transform="translate(888.0,42.0) scale(1.000)" class="ic ic-blue"><path d="m15.5 7.5 2.3 2.3a1 1 0 0 0 1.4 0l2.1-2.1a1 1 0 0 0 0-1.4L19 4"/><path d="m21 2-9.6 9.6"/><circle cx="7.5" cy="15.5" r="5.5"/></g>
<text x="733" y="94" class="h">配账号、存密码</text>
<text x="733" y="118" class="s">用户名和 uid 写文件，密码交</text>
<text x="733" y="137" class="s">给系统保管</text>
<path d="M823.5,166.0 L823.5,186.0 L130.5,186.0 L130.5,202.0" class="ar"/>
<rect x="24.0" y="204.0" width="213.0" height="140.0" rx="12" class="c-gray"/>
<circle cx="53.0" cy="233.0" r="13" class="f-blue"/>
<text x="53" y="238" class="w" text-anchor="middle" style="font-size:13px">5</text>
<g transform="translate(195.0,222.0) scale(1.000)" class="ic ic-blue"><path d="M16 21v-2a4 4 0 0 0-4-4H6a4 4 0 0 0-4 4v2"/><circle cx="9" cy="7" r="4"/><path d="m16 11 2 2 4-4"/></g>
<text x="40" y="274" class="h">登录一次</text>
<text x="40" y="298" class="s">用保管的密码建立登录</text>
<path d="M239.0,274.0 L253.0,274.0" class="ar"/>
<rect x="255.0" y="204.0" width="213.0" height="140.0" rx="12" class="c-gray"/>
<circle cx="284.0" cy="233.0" r="13" class="f-blue"/>
<text x="284" y="238" class="w" text-anchor="middle" style="font-size:13px">6</text>
<g transform="translate(426.0,222.0) scale(1.000)" class="ic ic-blue"><path d="M6 4v16l14-8Z"/></g>
<text x="271" y="274" class="h">手动跑一次</text>
<text x="271" y="298" class="s">看到「圆满完成」；题库没题</text>
<text x="271" y="317" class="s">就补一次</text>
<path d="M470.0,274.0 L484.0,274.0" class="ar"/>
<rect x="486.0" y="204.0" width="213.0" height="140.0" rx="12" class="c-gray"/>
<circle cx="515.0" cy="233.0" r="13" class="f-blue"/>
<text x="515" y="238" class="w" text-anchor="middle" style="font-size:13px">7</text>
<g transform="translate(657.0,222.0) scale(1.000)" class="ic ic-blue"><circle cx="12" cy="13" r="8"/><path d="M12 9v4l2 2"/><path d="M5 3 2 6"/><path d="m22 6-3-3"/></g>
<text x="502" y="274" class="h">配每日计划</text>
<text x="502" y="298" class="s">每分钟检查一次；异常由健康</text>
<text x="502" y="317" class="s">观察报告</text>
<rect x="717.0" y="204.0" width="213.0" height="140.0" rx="12" class="c-blue"/>
<g transform="translate(733.0,218.0) scale(0.917)" class="ic ic-blue"><path d="M12 8V4H8"/><rect x="4" y="8" width="16" height="12" rx="2"/><path d="M2 14h2"/><path d="M20 14h2"/><path d="M15 13v2"/><path d="M9 13v2"/></g>
<text x="765" y="234" class="h">或者：交给 AI 助手</text>
<text x="765" y="256" class="s">这七步它替你做；密码在</text>
<text x="765" y="275" class="s">它弹出的安全输入框里输，</text>
<text x="765" y="294" class="s">助手拿不到明文</text>
<rect x="24.0" y="366.0" width="912.0" height="43.0" rx="10" class="c-gray"/>
<g transform="translate(38.0,374.5) scale(0.833)" class="ic ic-blue"><circle cx="12" cy="12" r="10"/><path d="M9.1 9a3 3 0 0 1 5.8 1c0 2-3 3-3 3"/><path d="M12 17h.01"/></g>
<text x="68" y="390" class="s">每台电脑做一次，之后全自动。每一步的具体命令见使用说明。</text>
</svg>
